<svg viewBox="0 0 15 17" fill="none" xmlns="http://www.w3.org/2000/svg">
    <path d="M3.33203 7.5H4.9987V9.16667H3.33203V7.5ZM3.33203 10.8333H4.9987V12.5H3.33203V10.8333ZM6.66536 7.5H8.33203V9.16667H6.66536V7.5ZM6.66536 10.8333H8.33203V12.5H6.66536V10.8333ZM9.9987 7.5H11.6654V9.16667H9.9987V7.5ZM9.9987 10.8333H11.6654V12.5H9.9987V10.8333Z"
          fill="currentColor"/>
    <path d="M1.66667 16.6667H13.3333C14.2525 16.6667 15 15.9192 15 15V3.33333C15 2.41417 14.2525 1.66667 13.3333 1.66667H11.6667V0H10V1.66667H5V0H3.33333V1.66667H1.66667C0.7475 1.66667 0 2.41417 0 3.33333V15C0 15.9192 0.7475 16.6667 1.66667 16.6667ZM13.3333 5L13.3342 15H1.66667V5H13.3333Z"
          fill="currentColor"/>
</svg>
