<svg width="70" height="71" viewBox="0 0 70 71" fill="none" xmlns="http://www.w3.org/2000/svg">
<rect width="70" height="71" rx="5" fill="#F3F9FF"/>
<path d="M60.2594 18H10.7406C8.67473 18 7 19.6718 7 21.734V49.8279C7 51.8902 8.67473 53.5619 10.7406 53.5619H60.2594C62.3253 53.5619 64 51.8902 64 49.8279V21.734C64 19.6718 62.3253 18 60.2594 18Z" fill="#DBD7E8"/>
<mask id="mask0_4422_34829" style="mask-type:alpha" maskUnits="userSpaceOnUse" x="7" y="18" width="57" height="36">
<path d="M60.2594 18H10.7406C8.67473 18 7 19.6718 7 21.734V49.8279C7 51.8902 8.67473 53.5619 10.7406 53.5619H60.2594C62.3253 53.5619 64 51.8902 64 49.8279V21.734C64 19.6718 62.3253 18 60.2594 18Z" fill="#DBD7E8"/>
</mask>
<g mask="url(#mask0_4422_34829)">
<ellipse cx="28.8159" cy="27.3318" rx="39.7828" ry="23.4558" transform="rotate(15 28.8159 27.3318)" fill="#C3DBE0"/>
<ellipse cx="28.8158" cy="20.1438" rx="31.869" ry="18.7898" fill="#E8D7C8"/>
<ellipse cx="28.8164" cy="14.2168" rx="21.8164" ry="12.8628" fill="#DDEBE7"/>
<rect x="7" y="41.9601" width="57" height="11.6018" fill="#DBD7E8"/>
<rect x="10.7832" y="44.9866" width="24.7168" height="0.504425" rx="0.252212" fill="#6384A5"/>
<rect x="36.7607" y="44.9866" width="13.6195" height="0.504425" rx="0.252212" fill="#6384A5"/>
<rect x="10.7827" y="47.5087" width="33.0398" height="0.504425" rx="0.252212" fill="#6384A5"/>
<rect x="45.083" y="47.5088" width="15.1327" height="0.504425" rx="0.252212" fill="#6384A5"/>
<rect x="10.7827" y="50.0308" width="15.1327" height="0.504425" rx="0.252212" fill="#6384A5"/>
</g>
<rect x="43.8232" y="23.8009" width="16.3938" height="0.504425" rx="0.252212" fill="#6384A5"/>
<rect x="27.4292" y="29.8539" width="11.3496" height="0.252212" rx="0.126106" fill="#A8BACB"/>
<rect x="27.4292" y="30.8628" width="16.3938" height="0.504425" rx="0.252212" fill="#A8BACB"/>
<rect x="27.4292" y="33.8893" width="11.3496" height="0.252212" rx="0.126106" fill="#A8BACB"/>
<rect x="27.4292" y="34.8982" width="16.3938" height="0.504425" rx="0.252212" fill="#A8BACB"/>
<rect x="27.4292" y="37.9247" width="6.0531" height="0.252212" rx="0.126106" fill="#A8BACB"/>
<rect x="27.4292" y="38.9336" width="8.82743" height="0.504425" rx="0.252212" fill="#A8BACB"/>
<rect x="38.7788" y="37.9247" width="6.0531" height="0.252212" rx="0.126106" fill="#A8BACB"/>
<rect x="38.7788" y="38.9336" width="8.82743" height="0.504425" rx="0.252212" fill="#A8BACB"/>
<path d="M11.3133 22.2877H10.7837V26.0204H11.3133V22.2877Z" fill="#013047"/>
<path d="M12.3217 22.2876H11.5146V26.0203H12.3217V22.2876Z" fill="#013047"/>
<path d="M12.725 22.2876H12.498V26.0203H12.725V22.2876Z" fill="#013047"/>
<path d="M13.2543 22.2876H13.0273V26.0203H13.2543V22.2876Z" fill="#013047"/>
<path d="M14.037 22.2876H13.5073V26.0203H14.037V22.2876Z" fill="#013047"/>
<path d="M15.0458 22.2876H14.2388V26.0203H15.0458V22.2876Z" fill="#013047"/>
<path d="M15.4492 22.2876H15.2222V26.0203H15.4492V22.2876Z" fill="#013047"/>
<path d="M15.9536 22.2876H15.7266V26.0203H15.9536V22.2876Z" fill="#013047"/>
<path d="M18.7533 22.2876H18.2236V26.0203H18.7533V22.2876Z" fill="#013047"/>
<path d="M18.0219 22.2876H17.2148V26.0203H18.0219V22.2876Z" fill="#013047"/>
<path d="M17.0121 22.2876H16.7852V26.0203H17.0121V22.2876Z" fill="#013047"/>
<path d="M16.5087 22.2876H16.2817V26.0203H16.5087V22.2876Z" fill="#013047"/>
<path d="M19.535 22.2877H19.0054V26.0204H19.535V22.2877Z" fill="#013047"/>
<path d="M20.5439 22.2876H19.7368V26.0203H20.5439V22.2876Z" fill="#013047"/>
<path d="M20.9472 22.2876H20.7202V26.0203H20.9472V22.2876Z" fill="#013047"/>
<path d="M21.4521 22.2876H21.2251V26.0203H21.4521V22.2876Z" fill="#013047"/>
<path d="M22.2591 22.2876H21.7295V26.0203H22.2591V22.2876Z" fill="#013047"/>
<path d="M23.2675 22.2876H22.4604V26.0203H23.2675V22.2876Z" fill="#013047"/>
<path d="M23.6459 22.2876H23.4189V26.0203H23.6459V22.2876Z" fill="#013047"/>
<path d="M24.1757 22.2876H23.9487V26.0203H24.1757V22.2876Z" fill="#013047"/>
<path d="M25.2348 22.2876H25.0078V26.0203H25.2348V22.2876Z" fill="#013047"/>
<path d="M24.7055 22.2876H24.4785V26.0203H24.7055V22.2876Z" fill="#013047"/>
<rect x="10.7837" y="33.385" width="8.0708" height="6.80973" rx="1.26106" fill="#DFBD2B"/>
<rect x="31.4648" y="22.2876" width="8.0708" height="3.78319" fill="#54D8F5"/>
<path d="M35.0991 25.2294C35.6485 25.2294 36.0938 24.7829 36.0938 24.2322C36.0938 23.6815 35.6485 23.235 35.0991 23.235C34.5498 23.235 34.1045 23.6815 34.1045 24.2322C34.1045 24.7829 34.5498 25.2294 35.0991 25.2294Z" fill="#DFBD2B"/>
</svg>
