<svg width="70" height="71" viewBox="0 0 70 71" fill="none" xmlns="http://www.w3.org/2000/svg">
<rect width="70" height="71" rx="5" fill="#F3F9FF"/>
<path d="M61.0625 17H8.9375C6.76288 17 5 18.7598 5 20.9305V50.5031C5 52.6739 6.76288 54.4336 8.9375 54.4336H61.0625C63.2371 54.4336 65 52.6739 65 50.5031V20.9305C65 18.7598 63.2371 17 61.0625 17Z" fill="#DBD7E8"/>
<mask id="mask0_4422_34765" style="mask-type:alpha" maskUnits="userSpaceOnUse" x="5" y="17" width="60" height="38">
<path d="M61.0625 17H8.9375C6.76288 17 5 18.7598 5 20.9305V50.5031C5 52.6739 6.76288 54.4336 8.9375 54.4336H61.0625C63.2371 54.4336 65 52.6739 65 50.5031V20.9305C65 18.7598 63.2371 17 61.0625 17Z" fill="#DBD7E8"/>
</mask>
<g mask="url(#mask0_4422_34765)">
<ellipse cx="27.9647" cy="26.8231" rx="41.8766" ry="24.6903" transform="rotate(15 27.9647 26.8231)" fill="#C3DBE0"/>
<ellipse cx="27.9643" cy="19.2565" rx="33.5463" ry="19.7788" fill="#E8D7C8"/>
<ellipse cx="27.9646" cy="13.0176" rx="22.9646" ry="13.5398" fill="#DDEBE7"/>
</g>
<g opacity="0.4">
<path d="M60.9143 41.1213C61.0996 38.8792 60.5452 36.6381 59.3358 34.7411C58.1265 32.844 56.3288 31.3955 54.218 30.6172C52.1071 29.8389 49.7994 29.7737 47.648 30.4315C45.4966 31.0894 43.62 32.4341 42.3054 34.2599C40.9909 36.0856 40.3108 38.2918 40.3692 40.5408C40.4276 42.7898 41.2214 44.9577 42.629 46.7127C44.0366 48.4677 45.9805 49.7131 48.1632 50.2584C50.3458 50.8037 52.6471 50.6187 54.7146 49.7318L54.5941 49.4509C52.588 50.3114 50.3551 50.4909 48.2372 49.9618C46.1194 49.4328 44.2332 48.2243 42.8674 46.5215C41.5016 44.8186 40.7315 42.7151 40.6748 40.5329C40.6181 38.3507 41.278 36.21 42.5535 34.4385C43.829 32.6669 45.6498 31.3622 47.7374 30.7238C49.8249 30.0855 52.0641 30.1488 54.1122 30.904C56.1604 31.6592 57.9046 33.0647 59.0781 34.9054C60.2515 36.7461 60.7895 38.9206 60.6097 41.0961L60.9143 41.1213Z" fill="#B4B4CC"/>
<path d="M56.6975 47.053C57.6824 46.1634 58.4616 45.0699 58.981 43.8486C59.5004 42.6273 59.7474 41.3075 59.705 39.981C59.6625 38.6545 59.3315 37.3532 58.735 36.1677C58.1385 34.9821 57.2909 33.9407 56.2511 33.116C55.2113 32.2913 54.0043 31.703 52.714 31.3922C51.4238 31.0813 50.0813 31.0553 48.78 31.316C47.4787 31.5766 46.2498 32.1177 45.1788 32.9015C44.1079 33.6854 43.2205 34.6931 42.5786 35.8547L42.896 36.0301C43.5125 34.9147 44.3646 33.9469 45.393 33.1942C46.4215 32.4415 47.6016 31.9219 48.8512 31.6716C50.1009 31.4213 51.3901 31.4462 52.6291 31.7448C53.8681 32.0433 55.0272 32.6082 56.0257 33.4002C57.0243 34.1921 57.8382 35.1922 58.411 36.3307C58.9838 37.4692 59.3017 38.7188 59.3425 39.9926C59.3833 41.2664 59.146 42.5339 58.6473 43.7067C58.1485 44.8795 57.4002 45.9296 56.4544 46.7838L56.6975 47.053Z" fill="#B4B4CC"/>
<path d="M41.8807 37.4642C41.4711 38.7314 41.3435 40.0728 41.5069 41.3944C41.6703 42.7161 42.1206 43.9861 42.8264 45.1154C43.5322 46.2447 44.4763 47.2061 45.5927 47.9321C46.7091 48.6582 47.9708 49.1314 49.2893 49.3185L49.3275 49.0496C48.0482 48.868 46.824 48.4089 45.7408 47.7044C44.6576 47 43.7415 46.0672 43.0567 44.9715C42.3719 43.8757 41.9349 42.6435 41.7764 41.3611C41.6179 40.0787 41.7417 38.7772 42.1391 37.5477L41.8807 37.4642Z" fill="#B4B4CC"/>
<path d="M46.283 33.5568C45.2156 34.2413 44.3268 35.1703 43.6901 36.2668C43.0534 37.3633 42.6872 38.5958 42.6218 39.8621C42.5565 41.1284 42.7939 42.392 43.3143 43.5483C43.8347 44.7045 44.6232 45.7201 45.6145 46.5108C46.6057 47.3015 47.7711 47.8446 49.0141 48.0951C50.2571 48.3456 51.5418 48.2962 52.7619 47.9511C53.982 47.606 55.1023 46.9751 56.03 46.1107C56.9576 45.2462 57.6659 44.1731 58.096 42.9804L57.7208 42.845C57.3121 43.9781 56.6392 44.9976 55.758 45.8188C54.8767 46.64 53.8125 47.2394 52.6534 47.5672C51.4943 47.8951 50.2737 47.942 49.0929 47.704C47.912 47.4661 46.8049 46.9501 45.8632 46.1989C44.9216 45.4477 44.1725 44.483 43.6781 43.3845C43.1837 42.2861 42.9582 41.0856 43.0203 39.8827C43.0824 38.6797 43.4302 37.5088 44.0351 36.4671C44.64 35.4254 45.4844 34.5429 46.4984 33.8926L46.283 33.5568Z" fill="#B4B4CC"/>
</g>
<path fill-rule="evenodd" clip-rule="evenodd" d="M52.0168 47.1899C53.0858 47.6203 54.0998 48.1204 54.8496 48.5352C54.8993 48.5628 54.9234 48.6264 54.9062 48.6849C54.889 48.7435 54.8357 48.7793 54.7808 48.7692L50.966 48.0656C50.9509 48.0748 50.9312 48.0866 50.9072 48.1004C50.8467 48.1352 50.759 48.1833 50.6487 48.2372C50.4283 48.345 50.1165 48.4766 49.7509 48.5721C49.0217 48.7625 48.0638 48.8121 47.1933 48.2194C46.8893 48.0124 46.5924 47.8923 46.3071 47.839C46.3097 47.895 46.3202 47.9427 46.3359 47.9837C46.399 48.1477 46.5654 48.26 46.8153 48.3642C46.9085 48.4031 47.0069 48.4384 47.1091 48.4752C47.1405 48.4864 47.1722 48.4978 47.2043 48.5095C47.3387 48.5585 47.4769 48.6115 47.6043 48.6768C47.8575 48.8064 48.0913 48.9959 48.1643 49.3278C48.1962 49.4728 48.2086 49.5977 48.1906 49.696C48.1813 49.7472 48.1626 49.7971 48.1292 49.8378C48.0948 49.8798 48.0512 49.9041 48.0049 49.9144C47.9193 49.9334 47.824 49.9047 47.7355 49.8638C47.6429 49.821 47.5377 49.7553 47.4243 49.6742C47.0765 49.4257 46.6118 49.0046 46.1199 48.5587C45.975 48.4274 45.8277 48.294 45.6804 48.1622C45.5778 48.0704 45.4752 47.9794 45.3732 47.8903C45.2528 47.9256 45.1363 47.9707 45.0241 48.0236C44.3996 48.3177 43.909 48.8513 43.6504 49.2518C43.6144 49.3077 43.5442 49.3207 43.4936 49.2807C43.4431 49.2408 43.4314 49.1631 43.4675 49.1072C43.7442 48.6785 44.2653 48.1106 44.9361 47.7947C45.0076 47.761 45.0809 47.7301 45.1557 47.7027C44.6845 47.3014 44.2372 46.9592 43.8798 46.7882C43.6302 46.6688 43.4606 46.6509 43.3601 46.7044C43.2724 46.7511 43.1897 46.8826 43.1897 47.225C43.1897 47.2937 43.1393 47.3494 43.0772 47.3494C43.0152 47.3494 42.9648 47.2937 42.9648 47.225C42.9648 46.8568 43.053 46.5919 43.2626 46.4803C43.4594 46.3755 43.7133 46.4375 43.969 46.5598C44.3858 46.7593 44.9037 47.1676 45.4266 47.6203C45.6452 47.5675 45.8748 47.5451 46.1127 47.5632C46.153 47.392 46.2327 47.1995 46.3536 46.9822C46.6395 46.4681 47.1899 46.2495 47.8504 46.2102C48.5139 46.1707 49.3174 46.3096 50.1542 46.5448C50.6733 46.6907 51.208 46.8745 51.734 47.0782C51.9504 46.9357 52.1944 46.8131 52.4432 46.7639C52.7183 46.7095 53.0038 46.7446 53.2589 46.9462C53.3094 46.9861 53.3211 47.0638 53.285 47.1197C53.2489 47.1756 53.1787 47.1885 53.1282 47.1486C52.9337 46.9948 52.7134 46.9632 52.4827 47.0088C52.3274 47.0395 52.1695 47.1049 52.0168 47.1899ZM51.4957 47.2502C51.0288 47.0738 50.5573 46.9148 50.0989 46.7859C49.271 46.5532 48.4929 46.4211 47.8624 46.4586C47.229 46.4963 46.773 46.7027 46.5451 47.1125C46.4379 47.3053 46.373 47.4629 46.3385 47.5926C46.6525 47.6503 46.9788 47.7812 47.3111 48.0075C48.1106 48.5519 48.9994 48.5127 49.6993 48.33C50.0483 48.2389 50.3467 48.1129 50.5578 48.0097C50.6633 47.9581 50.7467 47.9124 50.8034 47.8797C50.8318 47.8634 50.8534 47.8503 50.8678 47.8415C50.8706 47.8398 50.8732 47.8382 50.8755 47.8368C50.8769 47.8351 50.8784 47.8334 50.8801 47.8315C50.8907 47.8193 50.9062 47.8019 50.9261 47.7801C50.9659 47.7364 51.0235 47.6753 51.0954 47.6042C51.201 47.5 51.3382 47.3736 51.4957 47.2502ZM51.1821 47.8533C51.2015 47.8333 51.2226 47.8121 51.2452 47.7898C51.3761 47.6604 51.556 47.4976 51.7607 47.3523C52.5741 47.6719 53.3636 48.0372 54.0359 48.3796L51.1821 47.8533ZM46.0815 47.8103C45.9382 47.8005 45.7982 47.8069 45.6623 47.8268C45.7156 47.874 45.7688 47.9213 45.8217 47.9687C45.9736 48.1047 46.124 48.2409 46.2708 48.3739C46.7603 48.8174 47.2102 49.2251 47.5463 49.4653C47.6547 49.5427 47.7471 49.5996 47.8221 49.6342C47.9013 49.6708 47.9438 49.6742 47.9607 49.6705C47.9619 49.6702 47.9627 49.67 47.9633 49.6698C47.9645 49.6676 47.9677 49.661 47.9703 49.6467C47.9783 49.6031 47.9756 49.5218 47.9459 49.3866C47.8973 49.1656 47.7411 49.0209 47.5099 48.9025C47.395 48.8437 47.2674 48.7944 47.134 48.7458C47.104 48.7349 47.0737 48.724 47.0431 48.713C46.9399 48.6759 46.8346 48.6381 46.736 48.597C46.4864 48.4929 46.2327 48.3506 46.1291 48.081C46.0972 47.9982 46.0812 47.9083 46.0815 47.8103Z" fill="#231F20"/>
<path d="M35.075 25.4655C36.2094 25.4655 37.129 24.5459 37.129 23.4115C37.129 22.2771 36.2094 21.3575 35.075 21.3575C33.9406 21.3575 33.021 22.2771 33.021 23.4115C33.021 24.5459 33.9406 25.4655 35.075 25.4655Z" fill="#DFBD2B"/>
<path d="M35.075 20.2693C33.337 20.2693 31.915 21.6738 31.915 23.4293C31.915 25.1673 33.3195 26.5893 35.075 26.5893C36.813 26.5893 38.235 25.1849 38.235 23.4293C38.235 21.6738 36.813 20.2693 35.075 20.2693ZM35.075 25.9046C33.7057 25.9046 32.5821 24.7811 32.5821 23.4118C32.5821 22.0424 33.7057 20.9189 35.075 20.9189C36.4443 20.9189 37.5679 22.0424 37.5679 23.4118C37.5679 24.7811 36.4443 25.9046 35.075 25.9046Z" fill="#DFBD2B"/>
<path d="M24.581 29.2124H8.98242V49.1239H24.581V29.2124Z" fill="white"/>
<mask id="mask1_4422_34765" style="mask-type:alpha" maskUnits="userSpaceOnUse" x="8" y="29" width="17" height="21">
<path d="M24.581 29.2123H8.98242V49.1238H24.581V29.2123Z" fill="white"/>
</mask>
<g mask="url(#mask1_4422_34765)">
<path d="M20.8039 38.1124H12.8208V44.7955H20.8039V38.1124Z" fill="#2E0F05"/>
<path d="M18.3265 42.3484H15.1914V44.153H18.3265V42.3484Z" fill="#EFBFA5"/>
<path d="M16.0784 43.7401C16.5831 43.7248 17.0725 43.5566 17.4548 43.3119C17.776 43.1131 18.0206 42.8684 18.2195 42.5931C18.25 42.532 18.2959 42.4708 18.3418 42.4096V42.3484H15.1914V43.7095C15.482 43.7401 15.7878 43.7401 16.0784 43.7401Z" fill="#D8AD96"/>
<path d="M20.6511 37.4242C20.6511 34.5185 18.9077 32.8515 16.7666 32.8362H16.7513H16.736C14.5797 32.8515 12.8516 34.5185 12.8516 37.4242C12.8516 41.1863 15.5585 43.3886 16.7666 43.3886C17.9289 43.3733 20.6511 41.1863 20.6511 37.4242Z" fill="#EFBFA5"/>
<path d="M20.2532 38.4945L20.0391 40.2074C20.9108 40.5897 21.0484 38.5863 21.0484 38.5863C20.8496 38.0816 20.2532 38.4945 20.2532 38.4945Z" fill="#EFBFA5"/>
<path d="M12.5151 38.5713C12.5151 38.5713 12.6528 40.59 13.5245 40.1924L13.3104 38.4948C13.3104 38.4948 12.7139 38.0819 12.5151 38.5713Z" fill="#EFBFA5"/>
<path d="M15.1914 44.0154L11.414 45.1777C11.414 45.1777 10.0987 45.4071 9.76229 46.7835L9.18115 49.2916H16.7054H16.7666H24.2908L23.7097 46.7988C23.3732 45.4224 22.058 45.193 22.058 45.193L18.2806 44.0307H15.1914V44.0154Z" fill="#EFBFA5"/>
<path d="M20.4522 44.6885L22.0427 45.1779C22.0427 45.1779 23.358 45.4073 23.6944 46.7837L24.2755 49.2765H16.7666H16.7054H9.18115L9.76229 46.7837C10.0987 45.4073 11.414 45.1779 11.414 45.1779L13.0197 44.6885C13.0197 44.6885 13.0197 48.2213 16.736 48.313C16.736 48.313 20.3758 48.6954 20.4522 44.6885Z" fill="#2A337C"/>
<path d="M14.8398 34.2431C14.8398 34.2431 15.6045 37.2864 20.6513 38.1887C20.6513 38.1887 20.376 43.9848 18.4949 46.7835C18.4949 46.7835 20.636 47.1658 21.2171 45.713C21.2171 45.713 22.0735 38.0052 21.0183 35.1301C21.0183 35.1301 19.8101 30.4962 15.2222 32.4996C15.1916 32.5149 14.0905 32.8361 14.8398 34.2431Z" fill="#52231C"/>
<path d="M19.0761 34.2431C19.0761 34.2431 14.8552 31.9797 13.54 37.9593C13.54 37.9593 13.5553 43.9849 15.4363 46.7682C15.4363 46.7682 13.2953 47.1506 12.7141 45.6977C12.7141 45.6977 11.8577 37.9899 12.913 35.1148C12.913 35.1148 14.1211 30.481 18.7091 32.4844C18.7091 32.515 19.8255 32.8361 19.0761 34.2431Z" fill="#52231C"/>
</g>
<rect x="8.98242" y="22.0443" width="17.2566" height="0.530973" rx="0.265487" fill="#6384A5"/>
<rect x="11.6372" y="23.3716" width="11.9469" height="0.265487" rx="0.132743" fill="#6384A5"/>
<rect x="8.98242" y="50.9822" width="17.2566" height="0.530973" rx="0.265487" fill="#6384A5"/>
<rect x="43.7607" y="22.0443" width="17.2566" height="0.530973" rx="0.265487" fill="#6384A5"/>
<rect x="46.4155" y="23.3716" width="11.9469" height="0.265487" rx="0.132743" fill="#6384A5"/>
<rect x="27.0352" y="31.8673" width="11.9469" height="0.265487" rx="0.132743" fill="#A8BACB"/>
<rect x="27.0352" y="32.9292" width="17.2566" height="0.530973" rx="0.265487" fill="#A8BACB"/>
<rect x="27.0352" y="36.1151" width="11.9469" height="0.265487" rx="0.132743" fill="#A8BACB"/>
<rect x="27.0352" y="37.1771" width="17.2566" height="0.530973" rx="0.265487" fill="#A8BACB"/>
<rect x="27.0352" y="40.3629" width="11.9469" height="0.265487" rx="0.132743" fill="#A8BACB"/>
<rect x="27.0352" y="41.4248" width="17.2566" height="0.530973" rx="0.265487" fill="#A8BACB"/>
</svg>
