<svg width="70" height="71" viewBox="0 0 70 71" fill="none" xmlns="http://www.w3.org/2000/svg">
<rect width="70" height="71" rx="4.67105" fill="#F3F9FF"/>
<path d="M40.7132 23.9368H16.8418V43.9211H40.7132V23.9368Z" fill="#2E0F05"/>
<path d="M33.3045 36.6042H23.9297V42.0005H33.3045V36.6042Z" fill="#EFBFA5"/>
<path d="M26.5821 40.7657C28.0912 40.72 29.5546 40.217 30.6978 39.4853C31.6582 38.8908 32.3899 38.1591 32.9844 37.3359C33.0758 37.153 33.213 36.9701 33.3502 36.7872V36.6042H23.9297V40.6743C24.7986 40.7657 25.7132 40.7657 26.5821 40.7657Z" fill="#D8AD96"/>
<path d="M40.2558 21.8789C40.2558 13.19 35.0425 8.2054 28.6402 8.15967H28.5944H28.5487C22.1007 8.2054 16.9331 13.19 16.9331 21.8789C16.9331 33.1286 25.0274 39.7138 28.6402 39.7138C32.1157 39.6681 40.2558 33.1286 40.2558 21.8789Z" fill="#EFBFA5"/>
<path d="M39.0665 25.0802L38.4263 30.202C41.0329 31.3453 41.4445 25.3546 41.4445 25.3546C40.85 23.8454 39.0665 25.0802 39.0665 25.0802Z" fill="#EFBFA5"/>
<path d="M15.9268 25.3087C15.9268 25.3087 16.3383 31.3452 18.945 30.1562L18.3048 25.0801C18.3048 25.0801 16.5213 23.8453 15.9268 25.3087Z" fill="#EFBFA5"/>
<path d="M23.9302 41.5887L12.6347 45.0643C12.6347 45.0643 8.70185 45.7502 7.69577 49.866L5.95801 57.3658H28.4575H28.6404H51.1399L49.4021 49.9117C48.3961 45.796 44.4632 45.11 44.4632 45.11L33.1678 41.6345H23.9302V41.5887Z" fill="#EFBFA5"/>
<path d="M39.6615 43.6008L44.4174 45.0642C44.4174 45.0642 48.3503 45.7502 49.3564 49.8659L53.3806 70.9999H28.6403H28.4574H3.67139L7.69571 49.8659C8.70178 45.7502 12.6346 45.0642 12.6346 45.0642L17.4363 43.6008C17.4363 43.6008 17.4363 54.1646 28.5489 54.439C28.5489 54.439 39.4328 55.5823 39.6615 43.6008Z" fill="#2A337C"/>
<path d="M22.8783 12.367C22.8783 12.367 25.1648 21.4674 40.2559 24.1656C40.2559 24.1656 39.4328 41.4975 33.8079 49.8662C33.8079 49.8662 40.2102 51.0095 41.948 46.665C41.948 46.665 44.5089 23.6168 41.3535 15.0194C41.3535 15.0194 37.7408 1.16302 24.0216 7.15374C23.9301 7.19947 20.6375 8.15982 22.8783 12.367Z" fill="#52231C"/>
<path d="M35.5455 12.3669C35.5455 12.3669 22.9239 5.59873 18.991 23.4794C18.991 23.4794 19.0368 41.4973 24.6616 49.8203C24.6616 49.8203 18.2593 50.9636 16.5216 46.6191C16.5216 46.6191 13.9607 23.5709 17.1161 14.9735C17.1161 14.9735 20.7288 1.11712 34.448 7.10784C34.448 7.1993 37.7863 8.15965 35.5455 12.3669Z" fill="#52231C"/>
<path d="M63.8394 41.1052H31.318C29.9612 41.1052 28.8613 42.2032 28.8613 43.5575V62.0082C28.8613 63.3626 29.9612 64.4605 31.318 64.4605H63.8394C65.1961 64.4605 66.296 63.3626 66.296 62.0082V43.5575C66.296 42.2032 65.1961 41.1052 63.8394 41.1052Z" fill="#DBD7E8"/>
<mask id="mask0_4422_34922" style="mask-type:alpha" maskUnits="userSpaceOnUse" x="28" y="41" width="39" height="24">
<path d="M63.8394 41.1052H31.318C29.9612 41.1052 28.8613 42.2032 28.8613 43.5575V62.0082C28.8613 63.3626 29.9612 64.4605 31.318 64.4605H63.8394C65.1961 64.4605 66.296 63.3626 66.296 62.0082V43.5575C66.296 42.2032 65.1961 41.1052 63.8394 41.1052Z" fill="#DBD7E8"/>
</mask>
<g mask="url(#mask0_4422_34922)">
<ellipse cx="43.1895" cy="47.2339" rx="26.1273" ry="15.4045" transform="rotate(15 43.1895 47.2339)" fill="#C3DBE0"/>
<ellipse cx="43.1887" cy="42.5133" rx="20.9299" ry="12.3402" fill="#E8D7C8"/>
<ellipse cx="43.1892" cy="38.6207" rx="14.3279" ry="8.44765" fill="#DDEBE7"/>
</g>
<g opacity="0.4">
<path d="M63.7468 56.1549C63.8624 54.756 63.5165 53.3577 62.7619 52.1741C62.0074 50.9906 60.8858 50.0868 59.5688 49.6012C58.2519 49.1156 56.812 49.0749 55.4698 49.4854C54.1275 49.8958 52.9566 50.7348 52.1365 51.8739C51.3163 53.013 50.892 54.3895 50.9284 55.7927C50.9649 57.1958 51.4601 58.5484 52.3383 59.6434C53.2166 60.7383 54.4294 61.5154 55.7912 61.8556C57.153 62.1958 58.5887 62.0804 59.8787 61.527L59.8035 61.3518C58.5519 61.8887 57.1588 62.0006 55.8374 61.6706C54.516 61.3405 53.3393 60.5865 52.4871 59.5241C51.635 58.4616 51.1545 57.1492 51.1191 55.7877C51.0837 54.4262 51.4954 53.0906 52.2912 51.9853C53.087 50.8801 54.2231 50.066 55.5255 49.6678C56.8279 49.2695 58.225 49.309 59.5029 49.7801C60.7807 50.2513 61.869 51.1282 62.6011 52.2767C63.3332 53.4251 63.6689 54.7818 63.5567 56.1391L63.7468 56.1549Z" fill="#B4B4CC"/>
<path d="M61.1157 59.8556C61.7302 59.3005 62.2164 58.6183 62.5405 57.8563C62.8645 57.0943 63.0187 56.2709 62.9922 55.4433C62.9656 54.6157 62.7591 53.8038 62.387 53.0641C62.0148 52.3244 61.486 51.6747 60.8373 51.1601C60.1885 50.6456 59.4354 50.2786 58.6304 50.0846C57.8254 49.8907 56.9879 49.8744 56.176 50.0371C55.364 50.1997 54.5973 50.5373 53.9291 51.0263C53.261 51.5154 52.7073 52.1441 52.3068 52.8688L52.5049 52.9783C52.8895 52.2823 53.4211 51.6785 54.0628 51.2089C54.7044 50.7393 55.4407 50.4151 56.2204 50.2589C57.0001 50.1028 57.8044 50.1183 58.5774 50.3046C59.3505 50.4908 60.0736 50.8433 60.6966 51.3374C61.3196 51.8315 61.8275 52.4555 62.1849 53.1658C62.5422 53.8761 62.7405 54.6558 62.766 55.4505C62.7914 56.2453 62.6434 57.036 62.3322 57.7678C62.021 58.4995 61.5542 59.1547 60.9641 59.6876L61.1157 59.8556Z" fill="#B4B4CC"/>
<path d="M51.8717 53.8731C51.6161 54.6637 51.5365 55.5007 51.6385 56.3253C51.7404 57.1499 52.0214 57.9422 52.4617 58.6468C52.9021 59.3514 53.4911 59.9512 54.1877 60.4042C54.8842 60.8572 55.6714 61.1524 56.494 61.2692L56.5178 61.1014C55.7196 60.9881 54.9559 60.7017 54.2801 60.2621C53.6042 59.8226 53.0327 59.2406 52.6054 58.557C52.1782 57.8734 51.9055 57.1046 51.8066 56.3045C51.7078 55.5044 51.785 54.6923 52.0329 53.9252L51.8717 53.8731Z" fill="#B4B4CC"/>
<path d="M54.6184 51.4352C53.9525 51.8623 53.3979 52.4419 53.0007 53.126C52.6034 53.8102 52.375 54.5791 52.3342 55.3692C52.2934 56.1592 52.4415 56.9476 52.7662 57.669C53.0909 58.3904 53.5829 59.024 54.2013 59.5174C54.8197 60.0107 55.5468 60.3496 56.3224 60.5059C57.0979 60.6621 57.8995 60.6313 58.6607 60.416C59.4219 60.2007 60.1209 59.8071 60.6997 59.2677C61.2784 58.7284 61.7203 58.0589 61.9887 57.3147L61.7546 57.2303C61.4996 57.9372 61.0798 58.5733 60.53 59.0856C59.9801 59.598 59.3161 59.972 58.593 60.1765C57.8698 60.3811 57.1083 60.4103 56.3715 60.2618C55.6348 60.1134 54.944 59.7915 54.3565 59.3228C53.769 58.8541 53.3017 58.2522 52.9932 57.5669C52.6847 56.8815 52.544 56.1326 52.5828 55.382C52.6215 54.6315 52.8385 53.9009 53.2159 53.251C53.5933 52.6011 54.1201 52.0504 54.7528 51.6447L54.6184 51.4352Z" fill="#B4B4CC"/>
</g>
<path fill-rule="evenodd" clip-rule="evenodd" d="M58.1955 59.9412C58.8624 60.2097 59.4951 60.5218 59.9629 60.7806C59.9939 60.7977 60.0089 60.8375 59.9982 60.874C59.9875 60.9105 59.9542 60.9328 59.92 60.9265L57.5399 60.4876C57.5304 60.4933 57.5181 60.5006 57.5032 60.5093C57.4654 60.531 57.4107 60.561 57.3419 60.5946C57.2044 60.6619 57.0099 60.744 56.7818 60.8036C56.3268 60.9224 55.7292 60.9533 55.186 60.5835C54.9964 60.4543 54.8111 60.3794 54.6331 60.3462C54.6347 60.3811 54.6413 60.4109 54.6511 60.4364C54.6905 60.5388 54.7943 60.6088 54.9502 60.6738C55.0084 60.6981 55.0698 60.7202 55.1335 60.7431C55.1531 60.7501 55.1729 60.7572 55.1929 60.7645C55.2767 60.7951 55.363 60.8282 55.4424 60.8689C55.6004 60.9498 55.7463 61.068 55.7919 61.275C55.8118 61.3655 55.8195 61.4434 55.8083 61.5048C55.8024 61.5367 55.7908 61.5678 55.7699 61.5933C55.7485 61.6194 55.7213 61.6346 55.6924 61.641C55.639 61.6529 55.5796 61.635 55.5243 61.6095C55.4665 61.5828 55.4009 61.5418 55.3302 61.4912C55.1132 61.3361 54.8232 61.0734 54.5163 60.7952C54.4259 60.7133 54.334 60.6301 54.2421 60.5478C54.1781 60.4905 54.1141 60.4338 54.0504 60.3782C53.9754 60.4002 53.9027 60.4284 53.8326 60.4613C53.443 60.6448 53.1369 60.9778 52.9756 61.2277C52.9531 61.2625 52.9093 61.2706 52.8778 61.2457C52.8463 61.2208 52.839 61.1723 52.8615 61.1374C53.0341 60.87 53.3592 60.5156 53.7777 60.3185C53.8224 60.2975 53.8681 60.2783 53.9148 60.2611C53.6207 60.0108 53.3417 59.7972 53.1187 59.6906C52.963 59.6161 52.8571 59.6049 52.7945 59.6383C52.7397 59.6674 52.6881 59.7495 52.6881 59.9631C52.6881 60.006 52.6567 60.0407 52.618 60.0407C52.5792 60.0407 52.5479 60.006 52.5479 59.9631C52.5479 59.7334 52.6029 59.5681 52.7336 59.4985C52.8564 59.4331 53.0148 59.4718 53.1743 59.5481C53.4344 59.6725 53.7575 59.9273 54.0838 60.2097C54.2201 60.1768 54.3634 60.1628 54.5118 60.1741C54.537 60.0673 54.5867 59.9472 54.6621 59.8116C54.8405 59.4909 55.1839 59.3545 55.596 59.33C56.01 59.3053 56.5113 59.392 57.0334 59.5387C57.3572 59.6297 57.6909 59.7444 58.0191 59.8715C58.154 59.7826 58.3063 59.7061 58.4615 59.6754C58.6331 59.6415 58.8113 59.6633 58.9704 59.7891C59.0019 59.814 59.0092 59.8625 58.9867 59.8974C58.9642 59.9322 58.9204 59.9403 58.8889 59.9154C58.7675 59.8195 58.6301 59.7998 58.4861 59.8282C58.3893 59.8473 58.2908 59.8882 58.1955 59.9412ZM57.8703 59.9788C57.579 59.8688 57.2849 59.7695 56.9989 59.6891C56.4824 59.544 55.9969 59.4615 55.6035 59.4849C55.2083 59.5085 54.9238 59.6372 54.7816 59.8929C54.7147 60.0132 54.6743 60.1115 54.6527 60.1924C54.8486 60.2284 55.0522 60.3101 55.2596 60.4513C55.7584 60.791 56.3129 60.7665 56.7496 60.6525C56.9673 60.5957 57.1535 60.5171 57.2852 60.4527C57.351 60.4205 57.403 60.392 57.4384 60.3716C57.4561 60.3614 57.4696 60.3533 57.4786 60.3477C57.4804 60.3467 57.482 60.3457 57.4834 60.3448C57.4843 60.3438 57.4852 60.3427 57.4863 60.3415C57.4929 60.3339 57.5026 60.323 57.515 60.3094C57.5398 60.2822 57.5758 60.244 57.6206 60.1997C57.6865 60.1346 57.7721 60.0558 57.8703 59.9788ZM57.6747 60.3551C57.6868 60.3427 57.7 60.3294 57.714 60.3155C57.7957 60.2348 57.9079 60.1331 58.0357 60.0425C58.5432 60.2419 59.0357 60.4698 59.4552 60.6835L57.6747 60.3551ZM54.4924 60.3283C54.4029 60.3221 54.3156 60.3261 54.2308 60.3386C54.2641 60.368 54.2972 60.3976 54.3303 60.4271C54.4251 60.5119 54.5189 60.5969 54.6105 60.6799C54.9159 60.9566 55.1966 61.211 55.4063 61.3608C55.4739 61.4091 55.5315 61.4447 55.5783 61.4663C55.6277 61.4891 55.6543 61.4912 55.6648 61.4889C55.6656 61.4887 55.6661 61.4885 55.6664 61.4884C55.6672 61.487 55.6692 61.4829 55.6708 61.474C55.6758 61.4468 55.6741 61.3961 55.6556 61.3118C55.6253 61.1738 55.5278 61.0836 55.3835 61.0097C55.3119 60.9731 55.2322 60.9422 55.1491 60.9119C55.1303 60.9051 55.1114 60.8983 55.0923 60.8915C55.0279 60.8683 54.9623 60.8447 54.9007 60.8191C54.745 60.7541 54.5867 60.6654 54.522 60.4972C54.5022 60.4455 54.4922 60.3894 54.4924 60.3283Z" fill="#231F20"/>
<path d="M47.6257 46.3871C48.3335 46.3871 48.9072 45.8134 48.9072 45.1056C48.9072 44.3978 48.3335 43.8241 47.6257 43.8241C46.918 43.8241 46.3442 44.3978 46.3442 45.1056C46.3442 45.8134 46.918 46.3871 47.6257 46.3871Z" fill="#DFBD2B"/>
<path d="M47.6253 43.1451C46.541 43.1451 45.6538 44.0214 45.6538 45.1167C45.6538 46.201 46.53 47.0882 47.6253 47.0882C48.7097 47.0882 49.5969 46.212 49.5969 45.1167C49.5969 44.0214 48.7097 43.1451 47.6253 43.1451ZM47.6253 46.6611C46.771 46.6611 46.07 45.9601 46.07 45.1057C46.07 44.2514 46.771 43.5504 47.6253 43.5504C48.4797 43.5504 49.1807 44.2514 49.1807 45.1057C49.1807 45.9601 48.4797 46.6611 47.6253 46.6611Z" fill="#DFBD2B"/>
<path d="M41.0783 48.7249H31.3462V61.1479H41.0783V48.7249Z" fill="white"/>
<mask id="mask1_4422_34922" style="mask-type:alpha" maskUnits="userSpaceOnUse" x="31" y="48" width="11" height="14">
<path d="M41.0783 48.7247H31.3462V61.1477H41.0783V48.7247Z" fill="white"/>
</mask>
<g mask="url(#mask1_4422_34922)">
<path d="M38.7219 54.2773H33.7412V58.447H38.7219V54.2773Z" fill="#2E0F05"/>
<path d="M37.1758 56.9204H35.2197V58.0463H37.1758V56.9204Z" fill="#EFBFA5"/>
<path d="M35.7731 57.7887C36.088 57.7792 36.3933 57.6742 36.6319 57.5215C36.8323 57.3975 36.9849 57.2448 37.109 57.0731C37.128 57.0349 37.1567 56.9967 37.1853 56.9586V56.9204H35.2197V57.7696C35.401 57.7887 35.5918 57.7887 35.7731 57.7887Z" fill="#D8AD96"/>
<path d="M38.6265 53.8481C38.6265 52.0352 37.5387 50.9951 36.2029 50.9856H36.1934H36.1838C34.8385 50.9951 33.7603 52.0352 33.7603 53.8481C33.7603 56.1953 35.4491 57.5693 36.2029 57.5693C36.9281 57.5598 38.6265 56.1953 38.6265 53.8481Z" fill="#EFBFA5"/>
<path d="M38.3782 54.516L38.2446 55.5847C38.7885 55.8232 38.8744 54.5732 38.8744 54.5732C38.7503 54.2584 38.3782 54.516 38.3782 54.516Z" fill="#EFBFA5"/>
<path d="M33.5503 54.5638C33.5503 54.5638 33.6362 55.8233 34.18 55.5752L34.0465 54.5161C34.0465 54.5161 33.6743 54.2585 33.5503 54.5638Z" fill="#EFBFA5"/>
<path d="M35.2201 57.9604L32.8633 58.6856C32.8633 58.6856 32.0427 58.8287 31.8328 59.6875L31.4702 61.2523H36.1647H36.2028H40.8973L40.5347 59.697C40.3248 58.8383 39.5042 58.6952 39.5042 58.6952L37.1475 57.97H35.2201V57.9604Z" fill="#EFBFA5"/>
<path d="M38.5024 58.3804L39.4947 58.6857C39.4947 58.6857 40.3153 58.8288 40.5252 59.6876L40.8878 61.2429H36.2028H36.1647H31.4702L31.8328 59.6876C32.0427 58.8288 32.8633 58.6857 32.8633 58.6857L33.8652 58.3804C33.8652 58.3804 33.8652 60.5845 36.1838 60.6417C36.1838 60.6417 38.4547 60.8803 38.5024 58.3804Z" fill="#2A337C"/>
<path d="M35.0006 51.8633C35.0006 51.8633 35.4776 53.7621 38.6264 54.325C38.6264 54.325 38.4546 57.9413 37.281 59.6874C37.281 59.6874 38.6168 59.926 38.9794 59.0195C38.9794 59.0195 39.5137 54.2105 38.8554 52.4167C38.8554 52.4167 38.1016 49.5256 35.2391 50.7756C35.22 50.7851 34.533 50.9855 35.0006 51.8633Z" fill="#52231C"/>
<path d="M37.6441 51.8634C37.6441 51.8634 35.0106 50.4513 34.1901 54.182C34.1901 54.182 34.1996 57.9414 35.3732 59.678C35.3732 59.678 34.0374 59.9166 33.6748 59.0101C33.6748 59.0101 33.1405 54.2011 33.7988 52.4073C33.7988 52.4073 34.5526 49.5162 37.4151 50.7662C37.4151 50.7852 38.1117 50.9856 37.6441 51.8634Z" fill="#52231C"/>
</g>
<rect x="31.3462" y="44.2526" width="10.7666" height="0.33128" rx="0.16564" fill="#6384A5"/>
<rect x="33.0024" y="45.0806" width="7.45381" height="0.16564" rx="0.0828201" fill="#6384A5"/>
<rect x="31.3462" y="62.3071" width="10.7666" height="0.33128" rx="0.16564" fill="#6384A5"/>
<rect x="53.0449" y="44.2526" width="10.7666" height="0.33128" rx="0.16564" fill="#6384A5"/>
<rect x="54.7012" y="45.0806" width="7.45381" height="0.16564" rx="0.0828201" fill="#6384A5"/>
<rect x="42.6094" y="50.3811" width="7.45381" height="0.16564" rx="0.0828201" fill="#A8BACB"/>
<rect x="42.6094" y="51.0437" width="10.7666" height="0.33128" rx="0.16564" fill="#A8BACB"/>
<rect x="42.6094" y="53.0314" width="7.45381" height="0.16564" rx="0.0828201" fill="#A8BACB"/>
<rect x="42.6094" y="53.694" width="10.7666" height="0.33128" rx="0.16564" fill="#A8BACB"/>
<rect x="42.6094" y="55.6816" width="7.45381" height="0.16564" rx="0.0828201" fill="#A8BACB"/>
<rect x="42.6094" y="56.3442" width="10.7666" height="0.33128" rx="0.16564" fill="#A8BACB"/>
</svg>
